<svg width="36" height="36" viewBox="0 0 36 36" fill="none" xmlns="http://www.w3.org/2000/svg">
<path fill-rule="evenodd" clip-rule="evenodd" d="M12 7.5C10.8065 7.5 9.66193 7.97411 8.81802 8.81802C7.97411 9.66193 7.5 10.8065 7.5 12V24C7.5 25.1935 7.97411 26.3381 8.81802 27.182C9.66193 28.0259 10.8065 28.5 12 28.5H24C25.1935 28.5 26.3381 28.0259 27.182 27.182C28.0259 26.3381 28.5 25.1935 28.5 24V12C28.5 10.8065 28.0259 9.66193 27.182 8.81802C26.3381 7.97411 25.1935 7.5 24 7.5H12ZM6.6967 6.6967C8.10322 5.29018 10.0109 4.5 12 4.5H24C25.9891 4.5 27.8968 5.29018 29.3033 6.6967C30.7098 8.10322 31.5 10.0109 31.5 12V24C31.5 25.9891 30.7098 27.8968 29.3033 29.3033C27.8968 30.7098 25.9891 31.5 24 31.5H12C10.0109 31.5 8.10322 30.7098 6.6967 29.3033C5.29018 27.8968 4.5 25.9891 4.5 24V12C4.5 10.0109 5.29018 8.10322 6.6967 6.6967ZM24.75 9.75C25.5784 9.75 26.25 10.4216 26.25 11.25V11.265C26.25 12.0934 25.5784 12.765 24.75 12.765C23.9216 12.765 23.25 12.0934 23.25 11.265V11.25C23.25 10.4216 23.9216 9.75 24.75 9.75ZM13.7574 13.7574C14.8826 12.6321 16.4087 12 18 12C19.5913 12 21.1174 12.6321 22.2426 13.7574C23.3679 14.8826 24 16.4087 24 18C24 19.5913 23.3679 21.1174 22.2426 22.2426C21.1174 23.3679 19.5913 24 18 24C16.4087 24 14.8826 23.3679 13.7574 22.2426C12.6321 21.1174 12 19.5913 12 18C12 16.4087 12.6321 14.8826 13.7574 13.7574ZM18 15C17.2043 15 16.4413 15.3161 15.8787 15.8787C15.3161 16.4413 15 17.2043 15 18C15 18.7957 15.3161 19.5587 15.8787 20.1213C16.4413 20.6839 17.2043 21 18 21C18.7957 21 19.5587 20.6839 20.1213 20.1213C20.6839 19.5587 21 18.7957 21 18C21 17.2043 20.6839 16.4413 20.1213 15.8787C19.5587 15.3161 18.7957 15 18 15Z" fill="#9B0606"/>
</svg>
